<?xml version="1.0" encoding="UTF-8"?>
<svg width="157" height="36" fill="none" version="1.1" viewBox="0 0 157 36" xmlns="http://www.w3.org/2000/svg">
 <title>Wallpaper*</title>
 <desc>British visual arts magazine</desc>
 <g clip-rule="evenodd" fill="#333" fill-rule="evenodd">
  <path d="m36.499 21.432c-2.8421 0.3237-3.7731 0.8084-3.7731 2.8421 0 1.6868 1.0229 2.4809 2.3015 2.4809 1.3695 0 2.258-0.5037 2.9132-1.2109v-4.2741l-1.4416 0.162zm-5.1182-9.6378c1.5167-0.5418 2.971-0.8146 4.6266-0.8146 2.7509 0 4.6524 0.7128 5.576 2.2233 0.7091 0.9133 0.9866 2.1268 0.9698 4.5704v6.8686c0 1.1082 0.8674 1.679 1.7408 1.858l-1.7892 3.2934c-0.5757-0.0497-1.1976-0.1806-1.7773-0.4121-0.9376-0.3746-1.7612-1.0118-2.0868-1.9875-0.2749 0.4897-0.6294 0.8497-0.9645 1.1843-0.9177 0.9171-2.3056 1.3335-3.5966 1.3335-3.5662 0-5.9943-1.7227-5.9943-5.449 0-3.8247 2.3921-5.6535 7.8871-5.9239 0.166 0 1.7863-0.1443 1.9682-0.1272v-1.0819c0-2.1513-0.3917-2.6342-2.484-2.6342-1.7026 0-3.1581 0.6558-5.3479 1.6297l-1.3189-3.3409c0.909-0.4686 1.5085-0.8044 2.591-1.1899z"/>
  <path d="m45.733 29.443h4.6294v-27.134h-4.6294v27.134z"/>
  <path d="m53.226 29.443h4.6288v-27.134h-4.6288v27.134z"/>
  <path d="m0 6.0551 5.9052 23.387h5.3023l3.3551-16.611 3.3294 16.611h5.1505l5.9741-23.387h-4.7982l-3.502 17.327-3.4771-17.327h-5.0766l-3.4702 17.459-3.4464-17.459h-5.2461z"/>
  <path d="m86.377 21.432c-2.8427 0.3237-3.775 0.8084-3.775 2.8421 0 1.6868 1.0238 2.4809 2.3021 2.4809 1.3696 0 2.2578-0.5037 2.9142-1.2109v-4.2741l-1.4413 0.162zm-5.1194-9.6378c1.5173-0.5418 2.9709-0.8146 4.6266-0.8146 2.7515 0 4.6527 0.7128 5.576 2.2233 0.7079 0.9133 0.9862 2.1268 0.9698 4.5704v6.8686c0 1.1082 0.8684 1.679 1.7414 1.858l-1.7886 3.2934c-0.6002-0.0521-1.2488-0.1915-1.8462-0.4401-0.9087-0.3783-1.7007-1.0067-2.0179-1.9595-0.2753 0.4897-0.6306 0.8497-0.9648 1.1843-0.9187 0.9171-2.3065 1.3335-3.5976 1.3335-3.5652 0-5.9946-1.7227-5.9946-5.449 0-3.8247 2.3928-5.6535 7.8874-5.9239 0.1661 0 1.7864-0.1443 1.9692-0.1272v-1.0819c0-2.1513-0.3914-2.6342-2.4837-2.6342-1.7038 0-3.1593 0.6558-5.3494 1.6297l-1.3181-3.3409c0.9097-0.4686 1.5089-0.8044 2.5905-1.1899z"/>
  <path d="m124.54 18.708v-0.3163c0-2.4815-0.665-4.194-3.006-4.194-1.866 0-3.081 0.9966-3.171 4.4765l2e-3 0.0338h6.175zm4.63 9.266c-1.676 1.1129-3.947 1.9558-6.597 1.9558-5.585 0-8.993-3.4759-8.993-9.4407 0-3.1302 0.744-5.3566 2.229-7.02 1.504-1.6868 3.521-2.502 6.036-2.502 2.381 0 4.322 0.7308 5.534 2.0572 1.479 1.5977 2.148 3.9417 2.148 7.2779v1.5294h-11.008c0 3.2478 2.039 4.3811 4.401 4.3811 1.835 0 3.557-0.5188 5.183-1.3959l1.067 3.1572z"/>
  <path d="m140.39 10.985c0.857 0 1.388 0.1061 1.991 0.3463l-0.962 4.1084c-0.525-0.1884-1.124-0.3116-1.953-0.3116-1.297 0-2.416 0.4509-3.431 1.2808v13.034h-4.701v-13.278c0-1.1585-0.134-3.992-0.318-4.4789l3.654-0.5375c0.202 0.3522 1.076 2.5051 1.11 2.9917 0.71-1.1188 1.673-2.1851 2.69-2.7099 0.552-0.2933 1.433-0.4444 1.92-0.4444z"/>
  <path d="m68.497 26.601c1.3106 0 2.2333-0.1698 2.8093-1.301 0.499-0.98 0.7364-2.7155 0.7364-5.2721 0-1.9403-0.239-3.2841-0.7144-4.1139-0.4919-0.8802-1.3224-1.2625-2.4893-1.2625-1.3643 0-2.4433 0.4878-3.4762 1.3037v9.5469c0.7169 0.5223 1.8168 1.0989 3.1342 1.0989zm-4.2747-15.436c0.3222 0.4711 0.8839 2.0852 0.9006 2.3536 1.0807-1.7789 3.2065-2.5352 4.8728-2.5352 1.4425 0 2.7689 0.4035 3.8017 1.1182 1.9899 1.3717 3.2189 3.9314 3.2189 8.0137 0 3.7636-0.8271 6.3155-2.7115 8.0355-1.2395 1.1219-2.893 1.7481-4.8159 1.7481-1.8245 0-3.2329-0.6073-4.177-1.3056 0.0056 0.3175 0.0336 1.4195 0.0336 1.6715v5.4838h-4.5432v-19.585c0-1.1585-0.0599-3.992-0.2448-4.4789l3.6648-0.5201z"/>
  <path d="m103.46 26.601c1.312 0 2.234-0.1698 2.81-1.301 0.5-0.98 0.735-2.7155 0.735-5.2721 0-1.9403-0.237-3.2841-0.713-4.1139-0.492-0.8802-1.323-1.2625-2.49-1.2625-1.364 0-2.443 0.4878-3.476 1.3037v9.5469c0.717 0.5223 1.817 1.0989 3.134 1.0989zm-4.2738-15.436c0.3212 0.4711 0.8848 2.0852 0.8998 2.3536 1.082-1.7789 3.207-2.5352 4.874-2.5352 1.444 0 2.767 0.4035 3.801 1.1182 1.991 1.3717 3.219 3.9314 3.219 8.0137 0 3.7636-0.828 6.3155-2.711 8.0355-1.24 1.1219-2.893 1.7481-4.816 1.7481-1.825 0-3.232-0.6073-4.178-1.3056 5e-3 0.3175 0.035 1.4195 0.035 1.6715v5.4838h-4.5438v-19.585c0-1.1585-0.0599-3.992-0.2455-4.4789l3.6655-0.5201z"/>
  <path d="m147.72 0v4.6272l-4.455-1.4481-1.02 3.1385 4.435 1.4416-2.727 3.754 2.67 1.9393 2.701-3.7179 2.701 3.7179 2.671-1.9393-2.728-3.754 4.435-1.4416-1.02-3.1385-4.455 1.4481v-4.6272h-3.208z"/>
 </g>
</svg>
